/* XPM */
static char * eclipzx16_xpm[] = {
"64 64 163 2",
"  	c None",
". 	c #D818D8",
"+ 	c #AD25AD",
"@ 	c #8C2B8C",
"# 	c #6D2F6D",
"$ 	c #523152",
"% 	c #443244",
"& 	c #3B323B",
"* 	c #3C323C",
"= 	c #463246",
"- 	c #553055",
"; 	c #712E71",
"> 	c #8F2B8F",
", 	c #AF25AF",
"' 	c #DE16DE",
") 	c #D01BD0",
"! 	c #902A90",
"~ 	c #4D314D",
"{ 	c #333333",
"] 	c #563156",
"^ 	c #C71E8D",
"/ 	c #FF00B7",
"( 	c #FC02FC",
"_ 	c #BA22BA",
": 	c #652F65",
"< 	c #8B2B2B",
"[ 	c #F90404",
"} 	c #FF0000",
"| 	c #FF0045",
"1 	c #FF00A8",
"2 	c #C91EC9",
"3 	c #623062",
"4 	c #C1205B",
"5 	c #E989BF",
"6 	c #F20AF2",
"7 	c #892B89",
"8 	c #343334",
"9 	c #BA2222",
"0 	c #A5A527",
"a 	c #FEFD01",
"b 	c #FFE86A",
"c 	c #D719D7",
"d 	c #593059",
"e 	c #FEFE01",
"f 	c #FFFF00",
"g 	c #FFF73D",
"h 	c #FF9CCD",
"i 	c #C320C3",
"j 	c #413241",
"k 	c #FDFD01",
"l 	c #ABA341",
"m 	c #C95BC9",
"n 	c #BB22BB",
"o 	c #383338",
"p 	c #BB2222",
"q 	c #A1A127",
"r 	c #2A8F2A",
"s 	c #16F816",
"t 	c #B1BAB1",
"u 	c #C220C2",
"v 	c #04FA04",
"w 	c #00FF00",
"x 	c #15FD15",
"y 	c #BCB0BC",
"z 	c #D61AD6",
"A 	c #403240",
"B 	c #27FA27",
"C 	c #F00CF0",
"D 	c #23B723",
"E 	c #5897AA",
"F 	c #FF00FF",
"G 	c #842C84",
"H 	c #2A8E2A",
"I 	c #03FA03",
"J 	c #299595",
"K 	c #02FBFB",
"L 	c #65EAFF",
"M 	c #C41FC4",
"N 	c #00FFFF",
"O 	c #A7C4FF",
"P 	c #F904F9",
"Q 	c #5C305C",
"R 	c #34F8FF",
"S 	c #B324B3",
"T 	c #00FEFE",
"U 	c #25B1B1",
"V 	c #C81DC8",
"W 	c #2A8E2B",
"X 	c #24B0B0",
"Y 	c #732E73",
"Z 	c #C71EC7",
"` 	c #373337",
" .	c #862C86",
"..	c #982998",
"+.	c #F805F8",
"@.	c #423242",
"#.	c #5E305E",
"$.	c #CB1DCB",
"%.	c #353335",
"&.	c #A327A3",
"*.	c #802D80",
"=.	c #922A92",
"-.	c #772E77",
";.	c #FC01FC",
">.	c #613061",
",.	c #F607F6",
"'.	c #513151",
").	c #F30AF3",
"!.	c #323332",
"~.	c #22B722",
"{.	c #5B305B",
"].	c #752E75",
"^.	c #7F2D7F",
"/.	c #A127A1",
"(.	c #B124B1",
"_.	c #CA1DCA",
":.	c #BA217D",
"<.	c #952A95",
"[.	c #FF0099",
"}.	c #363336",
"|.	c #FF00E8",
"1.	c #FF001A",
"2.	c #702E70",
"3.	c #FF0088",
"4.	c #C02040",
"5.	c #6E2F6E",
"6.	c #DC7EBB",
"7.	c #3A333A",
"8.	c #F9E273",
"9.	c #932A93",
"0.	c #FA5CEC",
"a.	c #FAF341",
"b.	c #643064",
"c.	c #F48DCF",
"d.	c #A4A136",
"e.	c #4C314C",
"f.	c #BD4ABD",
"g.	c #14F414",
"h.	c #B49FB4",
"i.	c #14F914",
"j.	c #BC95BC",
"k.	c #26F426",
"l.	c #4B324B",
"m.	c #D352D3",
"n.	c #518D9C",
"o.	c #7AD9F4",
"p.	c #03FEFE",
"q.	c #8F2A8F",
"r.	c #BEA6F6",
"s.	c #4AF0FA",
"t.	c #682F68",
"u.	c #B323B3",
"v.	c #603060",
"w.	c #692F69",
"x.	c #BC21BC",
"y.	c #892C89",
"z.	c #4B314B",
"A.	c #8D2B8D",
"B.	c #D11AD1",
"C.	c #A527A5",
"D.	c #672F67",
"E.	c #3A323A",
"F.	c #A827A8",
"                                                                                                                                ",
"                                                                                                                                ",
"                                                                                                                                ",
"                                                                                                                                ",
"                                                                                                                                ",
"                                                                                                                                ",
"                                                                                                                                ",
"                                                    . + @ # $ % & * = - ; > , '                                                 ",
"                                              ) ! ~ { { { { { { { { { { { { { { ] ^ /                                           ",
"                                        ( _ : { { { { { { { { { { { { { { { { { < [ } | 1                                       ",
"                                      2 3 { { { { { { { { { { { { { { { { { { < [ } } } } 4 5                                   ",
"                                  6 7 8 { { { { { { { { { { { { { { { { { { < [ } } } } 9 0 a b                                 ",
"                                c d { { { { { { { { { { { { { { { { { { { < [ } } } } 9 0 e f f g h                             ",
"                              i j { { { { { { { { { { { { { { { { { { { < [ } } } } 9 0 e f f f k l m                           ",
"                            n o { { { { { { { { { { { { { { { { { { { < [ } } } } p 0 e f f f k q r s t                         ",
"                          u o { { { { { { { { { { { { { { { { { { { < [ } } } } p 0 e f f f k q r v w x y                       ",
"                        z A { { { { { { { { { { { { { { { { { { { < [ } } } } p 0 e f f f k q r v w w w B                       ",
"                      C ] { { { { { { { { { { { { { { { { { { { < [ } } } } p 0 k f f f k q r v w w w w D E                     ",
"                    F G { { { { { { { { { { { { { { { { { { { < [ } } } } p 0 k f f f k q H I w w w w D J K L                   ",
"                    M { { { { { { { { { { { { { { { { { { { < [ } } } } p 0 k f f f k q H I w w w w D J K N N O                 ",
"                  P Q { { { { { { { { { { { { { { { { { { < [ } } } } p 0 k f f f k q H I w w w w D J K N N N R                 ",
"                  S { { { { { { { { { { { { { { { { { { < [ } } } } p 0 k f f f k q H I w w w w D J K N N N T U V               ",
"                ( Q { { { { { { { { { { { { { { { { { < [ } } } } p 0 k f f f k q W I w w w w D J K N N N T X { Y               ",
"                Z { { { { { { { { { { { { { { { { { < [ } } } } p 0 k f f f k q W I w w w w D J K N N N T X { { `               ",
"              F  .{ { { { { { { { { { { { { { { { < [ } } } } p 0 k f f f k q W I w w w w D J K N N N T X { { { { ..            ",
"              +.@.{ { { { { { { { { { { { { { { < [ } } } } p 0 e f f f k q W I w w w w D J K N N N T X { { { { { #.            ",
"              $.{ { { { { { { { { { { { { { { < [ } } } } 9 0 e f f f k q H I w w w w D J K N N N T X { { { { { { %.            ",
"              &.{ { { { { { { { { { { { { { < [ } } } } 9 0 e f f f k q H I w w w w D J K N N N T X { { { { { { { { S           ",
"              *.{ { { { { { { { { { { { { < [ } } } } 9 0 e f f f k q H I w w w w D J K N N N T X { { { { { { { { { =.          ",
"            F Q { { { { { { { { { { { { < [ } } } } 9 0 e f f f k q H I w w w w D J K N N N T X { { { { { { { { { { -.          ",
"            ;.@.{ { { { { { { { { { { < [ } } } } 9 0 e f f f k q r I w w w w D J K N N N T X { { { { { { { { { { { >.          ",
"            ,.8 { { { { { { { { { { < [ } } } } 9 0 e f f f k q r v w w w w D J K N N N T X { { { { { { { { { { { { '.          ",
"            ).!.{ { { { { { { { { < [ } } } } 9 0 e f f f k q r v w w w w D J K N N N T X { { { { { { { { { { { { { ~           ",
"            ).!.{ { { { { { { { < [ } } } } 9 0 k f f f k q r v w w w w D J K N N N T X { { { { { { { { { { { { { { ~           ",
"            ,.8 { { { { { { { < [ } } } } p 0 k f f f k q H I w w w w D J K N N N T X { { { { { { { { { { { { { { { '.          ",
"            ;.@.{ { { { { { < [ } } } } p 0 k f f f k q H I w w w w ~.J K N N N T X { { { { { { { { { { { { { { { { >.          ",
"              {.{ { { { { < [ } } } } p 0 k f f f k q H I w w w w ~.J K N N N T X { { { { { { { { { { { { { { { { { ].          ",
"              ^.{ { { { < [ } } } } p 0 k f f f k q H I w w w w ~.J K N N N T X { { { { { { { { { { { { { { { { { { !           ",
"              /.{ { { < [ } } } } 9 0 k f f f k q W I w w w w ~.J K N N N T X { { { { { { { { { { { { { { { { { { { (.          ",
"              _.{ { < [ } } } } 9 0 k f f f k q W I w w w w ~.J K N N N T X { { { { { { { { { { { { { { { { { { { %.            ",
"              +.j < [ } } } } 9 0 k f f f k q W I w w w w ~.J K N N N T X { { { { { { { { { { { { { { { { { { { { Q             ",
"                :.[ } } } } 9 0 e f f f k q W I w w w w ~.J K N N N T X { { { { { { { { { { { { { { { { { { { { { <.            ",
"                [.} } } } 9 0 e f f f k q H I w w w w ~.J K N N N T X { { { { { { { { { { { { { { { { { { { { { }.              ",
"                |.1.} } 9 0 e f f f k q H I w w w w ~.J K N N N T X { { { { { { { { { { { { { { { { { { { { { { 2.              ",
"                  3.} 9 0 e f f f k q H I w w w w ~.J K N N N T X { { { { { { { { { { { { { { { { { { { { { { 8                 ",
"                  |.4.0 e f f f k q H I w w w w ~.J K N N N T X { { { { { { { { { { { { { { { { { { { { { { { 5.                ",
"                    6.k f f f k q r I w w w w ~.J K N N N T X { { { { { { { { { { { { { { { { { { { { { { { 7.                  ",
"                      8.f f k q r v w w w w ~.J K N N N T X { { { { { { { { { { { { { { { { { { { { { { { { 9.                  ",
"                      0.a.k q r v w w w w ~.J K N N N T X { { { { { { { { { { { { { { { { { { { { { { { { b.                    ",
"                        c.d.r v w w w w ~.J K N N N T X { { { { { { { { { { { { { { { { { { { { { { { { e.                      ",
"                          f.g.w w w w ~.J K N N N T X { { { { { { { { { { { { { { { { { { { { { { { { @.                        ",
"                            h.i.w w ~.J K N N N T X { { { { { { { { { { { { { { { { { { { { { { { { @.                          ",
"                              j.k.~.J K N N N T X { { { { { { { { { { { { { { { { { { { { { { { { l.                            ",
"                                m.n.K N N N T X { { { { { { { { { { { { { { { { { { { { { { { { >.                              ",
"                                    o.p.N T X { { { { { { { { { { { { { { { { { { { { { { { o q.                                ",
"                                      r.s.X { { { { { { { { { { { { { { { { { { { { { { { t.                                    ",
"                                          u.v.{ { { { { { { { { { { { { { { { { { { 8 w.x.                                      ",
"                                              $.y.z.{ { { { { { { { { { { { { { $ A.                                            ",
"                                                    B.C.G D.'.j E.E.% $ w. .F.                                                  ",
"                                                                                                                                ",
"                                                                                                                                ",
"                                                                                                                                ",
"                                                                                                                                ",
"                                                                                                                                "};
